<svg width="38" height="38" viewBox="0 0 38 38" fill="none" xmlns="http://www.w3.org/2000/svg">
<path d="M29.5977 27.4648L37.4498 35.3151L34.8557 37.9093L27.0054 30.0571C24.0844 32.3987 20.4512 33.6723 16.7075 33.667C7.59952 33.667 0.20752 26.275 0.20752 17.167C0.20752 8.05899 7.59952 0.666992 16.7075 0.666992C25.8155 0.666992 33.2075 8.05899 33.2075 17.167C33.2128 20.9107 31.9393 24.5438 29.5977 27.4648ZM25.92 26.1045C28.2467 23.7118 29.5461 20.5044 29.5408 17.167C29.5408 10.0757 23.797 4.33366 16.7075 4.33366C9.61619 4.33366 3.87419 10.0757 3.87419 17.167C3.87419 24.2565 9.61619 30.0003 16.7075 30.0003C20.045 30.0056 23.2523 28.7062 25.645 26.3795L25.92 26.1045Z" fill="#9B9186"/>
</svg>
